<?xml version="1.0" encoding="UTF-8"?>
<!DOCTYPE svg  PUBLIC '-//W3C//DTD SVG 1.1//EN'  'http://www.w3.org/Graphics/SVG/1.1/DTD/svg11.dtd'>
<svg version="1.1" xmlns="http://www.w3.org/2000/svg">
<defs>
<font id="29LTBukra-Regular" horiz-adv-x="1560">
<font-face font-family="29LTBukra-Regular" font-weight="400" ascent="1690" bbox="-160 -492 2107 2138" cap-height="1688" descent="-358" panose-1="0 11 9 3 2 2 4 2 2 4" underline-position="-204" underline-thickness="102" unicode-range="U+0020-00FE" units-per-em="2048" x-height="1112"/>
<missing-glyph/>
<glyph glyph-name="space" horiz-adv-x="675" unicode=" "/>
<glyph glyph-name="space" horiz-adv-x="675" unicode=" "/>
<glyph d="M197 1688h145v-1285h-145v1285zM270 -47q-46 0 -78 33q-32 34 -32 78t33 77t77 33t78 -33q33 -33 33 -78t-33 -77t-78 -33z" glyph-name="exclam" horiz-adv-x="540" unicode="!"/>
<glyph d="M504 1688h162l-31 -611h-98zM135 1688h162l-31 -611h-98z" glyph-name="quotedbl" horiz-adv-x="800" unicode='"'/>
<glyph d="M571 633h420l62 436h-420zM510 1210l68 478h143l-68 -478h420l68 478h141l-65 -478h352l-23 -141h-350l-59 -436h350l-23 -144h-348l-72 -516h-145l72 516h-420l-72 -516h-143l72 516h-359l27 144h352l61 436h-360l29 141h352z" glyph-name="numbersign" horiz-adv-x="1619" unicode="#"/>
<glyph d="M641 1944h145v-238q250 -18 480 -160l-78 -129q-237 150 -493 150t-343 -146q-29 -49 -28 -114q0 -129 83 -206t250 -130l136 -41q216 -66 331 -163q158 -131 158 -339q0 -209 -137 -332t-359 -137v-231h-145v225q-279 9 -535 164l80 131q247 -152 476 -152t347 85 t117 245q0 202 -230 303q-75 33 -167 62l-123 36q-442 134 -440 467q0 200 157 311q71 49 161 75t157 28v236z" glyph-name="dollar" horiz-adv-x="1419" unicode="$"/>
<glyph d="M254 1194q0 -199 68 -290t183 -91q113 0 181 91t68 290t-68 289t-182 90t-182 -90t-68 -289zM503 674q-199 0 -298 144t-99 375q0 233 98 375t297 142q200 0 301 -141t99 -375q0 -370 -221 -482q-76 -38 -177 -38zM1257 473q1 -199 69 -290t182 -91t182 91t67 290 q0 199 -67 289q-68 90 -183 90t-183 -90t-67 -289zM1506 -47q-199 0 -297 143q-99 143 -99 375t97 375t297 143t301 -140q100 -140 100 -376q0 -369 -222 -481q-76 -38 -177 -39zM322 -27l1198 1715h170l-1198 -1715h-170z" glyph-name="percent" horiz-adv-x="2011" unicode="%"/>
<glyph d="M483 1368q0 -126 138 -278l67 -72q272 82 340 218q25 50 25 108q0 109 -75 165t-205 57q-129 1 -210 -51q-80 -52 -80 -147zM330 715q-108 -96 -109 -258q0 -161 120 -261q120 -99 296 -100q176 0 306 69t210 167l-522 530q-193 -51 -301 -147zM641 -47q-247 0 -415 142 q-160 139 -160 353t129 338t331 185q-199 216 -198 385t127 262q127 94 314 93t301 -85q132 -95 132 -269q0 -175 -122 -284t-287 -162l446 -456q109 175 147 452h152q-52 -352 -195 -561l367 -373h-203l-254 258q-97 -117 -255 -197t-357 -81z" glyph-name="ampersand" horiz-adv-x="1718" unicode="&amp;"/>
<glyph d="M135 1688h162l-31 -611h-98z" glyph-name="quotesingle" horiz-adv-x="432" unicode="'"/>
<glyph d="M310 -262q-183 428 -183 868q0 439 183 867q50 117 114 215h151q-147 -266 -201 -446q-100 -340 -100 -630q0 -289 85 -592q63 -218 216 -497h-151q-63 98 -114 215z" glyph-name="parenleft" horiz-adv-x="561" unicode="("/>
<glyph d="M434 603q0 -313 -87 -600t-210 -480h-151q151 272 226 530t75 546t-85 591q-66 228 -216 498h151q205 -329 273 -763q24 -157 24 -322z" glyph-name="parenright" horiz-adv-x="561" unicode=")"/>
<glyph d="M354 1688h133v-285l293 96l37 -127l-287 -94l177 -242l-107 -78l-178 242l-174 -242l-109 76l174 242l-284 100l37 127l288 -100v285z" glyph-name="asterisk" horiz-adv-x="845" unicode="*"/>
<glyph d="M557 477h-491v141h491v494h145v-494h492v-141h-492v-504h-145v504z" glyph-name="plus" horiz-adv-x="1259" unicode="+"/>
<glyph d="M227 178h162l-201 -545h-122z" glyph-name="comma" horiz-adv-x="505" unicode=","/>
<glyph d="M66 618h622v-141h-622v141z" glyph-name="hyphen" horiz-adv-x="753" unicode="-"/>
<glyph d="M248 -47q-45 0 -78 33q-33 34 -33 78t33 77t78 33t78 -33q32 -33 32 -78t-32 -77t-78 -33z" glyph-name="period" horiz-adv-x="495" unicode="."/>
<glyph d="M1034 1688h152l-1135 -2022h-157z" glyph-name="slash" horiz-adv-x="1079" unicode="/"/>
<glyph d="M676 -43q-274 0 -418 201q-133 184 -133 512t138 527q138 198 410 199t411 -197t139 -525q0 -505 -304 -664q-104 -53 -243 -53zM674 1257q-182 0 -288 -143t-105 -439q-1 -295 105 -435t289 -140t291 140t107 434q0 295 -108 439q-109 144 -291 144z" glyph-name="zero" horiz-adv-x="1349" unicode="0"/>
<glyph d="M494 -27h-146v1219l-301 -86v135l447 127v-1395z" glyph-name="one" horiz-adv-x="710" unicode="1"/>
<glyph d="M106 1239q210 158 430 158q318 0 431 -216q37 -73 37 -177q0 -304 -447 -679q-143 -122 -262 -210h747v-142h-987v131q406 297 595 503q200 222 200 399q0 66 -24 110q-73 137 -300 137q-84 -1 -162 -31t-174 -108z" glyph-name="two" horiz-adv-x="1167" unicode="2"/>
<glyph d="M51 1239q205 158 429 158q323 0 445 -212q38 -69 38 -146q0 -138 -85 -239q-59 -69 -130 -89q81 -13 152 -91q95 -104 93 -255q0 -99 -42 -177q-123 -232 -483 -231q-236 0 -443 158l84 125q96 -78 178 -109t174 -31q263 0 351 151q28 48 28 114q0 270 -387 270h-50v141 h43q193 0 277 66t84 173t-87 173q-88 65 -211 65q-123 -1 -201 -31t-177 -108z" glyph-name="three" horiz-adv-x="1126" unicode="3"/>
<glyph d="M809 477v660l-545 -660h545zM809 338h-739v119l749 901h135v-881h267v-139h-267v-365h-145v365z" glyph-name="four" horiz-adv-x="1306" unicode="4"/>
<glyph d="M182 240q173 -140 363 -140q266 0 365 179q32 57 32 138q0 155 -102 246q-94 80 -263 80t-409 -102l90 717h780v-141h-661l-47 -369q110 37 234 37q242 0 387 -118t145 -343q0 -224 -165 -350q-154 -117 -387 -117t-446 158z" glyph-name="five" horiz-adv-x="1222" unicode="5"/>
<glyph d="M994 466q-1 149 -106 254t-259 104q-154 -2 -258 -106q-103 -104 -103 -254t104 -257t259 -107q152 0 258 108q106 109 105 258zM1147 463q0 -205 -149 -356t-365 -150q-215 0 -367 144q-151 145 -151 360q0 98 36 184t119 205l367 508h178l-299 -416q38 21 136 22 q200 2 347 -147q148 -149 148 -354z" glyph-name="six" horiz-adv-x="1261" unicode="6"/>
<glyph d="M55 1217v141h975v-121l-706 -1264h-172l704 1244h-801z" glyph-name="seven" horiz-adv-x="1087" unicode="7"/>
<glyph d="M407 1188q-88 -65 -88 -165q0 -101 81 -169t236 -69t238 67q82 68 82 171q0 102 -87 166t-231 64q-143 0 -231 -65zM637 651q-170 1 -264 -73t-94 -203t97 -201t261 -74q248 0 334 156q27 49 26 115q0 133 -95 207t-265 73zM1108 1032q0 -123 -69 -214t-115 -105 q49 -15 69 -29q21 -14 63 -59q96 -101 95 -258q0 -99 -43 -177q-85 -155 -277 -207q-92 -26 -193 -26q-215 0 -364 109t-149 301q0 150 94 258q41 45 61 57t91 37q-132 41 -187 197q-18 54 -18 125t37 140t101 117q135 100 335 99q199 0 334 -102t135 -263z" glyph-name="eight" horiz-adv-x="1275" unicode="8"/>
<glyph d="M268 889q0 -151 104 -255t258 -104t260 106t104 256q-1 150 -104 255q-103 106 -260 106q-156 0 -259 -106q-103 -107 -103 -258zM599 387q-89 0 -179 39q-188 82 -266 268q-39 92 -39 196q1 204 151 355q150 152 362 152t366 -145q153 -145 153 -359q0 -98 -38 -183 t-118 -204l-366 -533h-179l304 439q-62 -25 -151 -25z" glyph-name="nine" horiz-adv-x="1261" unicode="9"/>
<glyph d="M248 913q-45 0 -78 33t-33 78t33 78t78 33t78 -33q32 -33 32 -78t-32 -78t-78 -33zM248 -47q-45 0 -78 33q-33 34 -33 78t33 77t78 33t78 -33q32 -33 32 -78t-32 -77t-78 -33z" glyph-name="colon" horiz-adv-x="495" unicode=":"/>
<glyph d="M297 913q-45 0 -78 33t-33 78t33 78t78 33t78 -33t33 -78t-33 -78t-78 -33zM227 178h162l-201 -545h-122z" glyph-name="semicolon" horiz-adv-x="505" unicode=";"/>
<glyph d="M1300 1139v-156l-1036 -448l1036 -443v-160l-1234 543v121z" glyph-name="less" horiz-adv-x="1366" unicode="&lt;"/>
<glyph d="M66 393h1087v-141h-1087v141zM66 844h1087v-142h-1087v142z" glyph-name="equal" horiz-adv-x="1218" unicode="="/>
<glyph d="M1300 596v-121l-1234 -543v160l1036 443l-1036 448v156z" glyph-name="greater" horiz-adv-x="1366" unicode="&gt;"/>
<glyph d="M484 1710q112 0 213 -39t174 -105q151 -135 151 -358t-161 -365q-73 -65 -167 -104t-170 -47v-385h-151v520h39q175 0 314 107q140 107 140 289q0 148 -111 246t-280 98q-104 0 -187 -27t-194 -90l6 164q106 56 188 76q84 20 196 20zM442 -47q-51 0 -86 35t-34 86 q0 51 34 86q35 35 86 35t86 -35t35 -86t-35 -86t-86 -35z" glyph-name="question" horiz-adv-x="1128" unicode="?"/>
<glyph d="M1014 1202q-143 0 -246 -129q-104 -129 -102 -307q0 -142 60 -206t148 -64q161 0 260 134t99 312q0 260 -219 260zM1038 1704q392 0 621 -199q240 -205 242 -565q0 -274 -121 -441q-55 -77 -129 -118t-147 -41q-130 0 -209 88q-36 41 -48 74t-12 41q-19 -41 -125 -113 t-250 -72q-241 0 -319 228q-27 76 -27 184t38 214q78 214 263 311q93 48 183 48q149 0 236 -76q28 -25 58 -65l15 96h141l-90 -575q-17 -109 17 -177q34 -69 131 -70q96 -1 170 119t75 310q0 189 -53 307q-54 118 -146 195q-187 158 -505 158q-179 -1 -325 -61 q-293 -121 -410 -409q-56 -140 -56 -299t49 -291q99 -268 366 -376q132 -53 296 -53q237 0 485 98l53 -129q-262 -111 -538 -111q-386 0 -623 243q-236 243 -238 620q0 190 70 354t196 288q126 125 298 195t368 70z" glyph-name="at" horiz-adv-x="2007" unicode="@"/>
<glyph d="M463 664h635l-318 786zM1538 -27h-164l-217 541h-754l-217 -541h-163l688 1715h139z" glyph-name="A" unicode="A"/>
<glyph d="M1180 1251q0 114 -107 204q-107 89 -309 87h-373v-602h373q208 0 312 80t104 231zM1278 446q0 190 -139 278q-108 69 -332 71h-416v-676h445q226 0 334 90t108 237zM1339 1274q0 -220 -152 -343q-54 -44 -48 -42q16 -4 89 -51q73 -46 119 -110q85 -117 86 -261 q2 -257 -177 -383q-158 -111 -414 -111h-602v1715h508q154 0 265 -33q225 -66 293 -228q34 -79 33 -153z" glyph-name="B" horiz-adv-x="1550" unicode="B"/>
<glyph d="M1462 1430q-229 137 -514 137t-489 -199q-205 -199 -205 -538q0 -338 206 -536t488 -198q283 0 514 137l68 -129q-247 -151 -567 -151q-201 0 -362 69q-321 137 -444 466q-60 161 -61 343q0 181 60 343q124 330 445 467q161 69 341 69t318 -36q139 -36 270 -115z" glyph-name="C" horiz-adv-x="1607" unicode="C"/>
<glyph d="M240 1688h387q428 0 696 -227t267 -633q-1 -407 -268 -630t-695 -225h-387v1715zM625 119q389 0 597 191t209 518q1 326 -223 520t-583 194h-234v-1423h234z" glyph-name="D" horiz-adv-x="1685" unicode="D"/>
<glyph d="M240 1688h999v-146h-848v-602h768v-149h-768v-672h858v-146h-1009v1715z" glyph-name="E" horiz-adv-x="1366" unicode="E"/>
<glyph d="M240 -27v1715h983v-146h-832v-602h746v-149h-746v-818h-151z" glyph-name="F" horiz-adv-x="1257" unicode="F"/>
<glyph d="M942 1710q180 0 318 -36q139 -36 270 -115l-68 -129q-229 137 -514 137t-489 -199q-205 -199 -205 -538q0 -338 206 -536t503 -198q119 0 239 28t203 66v467h-496v150h647v-703q-244 -151 -593 -151q-201 0 -362 69q-321 137 -444 466q-60 161 -61 343q0 181 60 343 q124 330 445 467q161 69 341 69z" glyph-name="G" horiz-adv-x="1796" unicode="G"/>
<glyph d="M240 -27v1715h151v-748h995v748h152v-1715h-152v818h-995v-818h-151z" glyph-name="H" horiz-adv-x="1777" unicode="H"/>
<glyph d="M240 -27v1715h151v-1715h-151z" glyph-name="I" horiz-adv-x="630" unicode="I"/>
<glyph d="M459 1688h151v-1330q0 -212 -98 -309q-98 -96 -261 -96t-327 80l66 137q130 -72 241 -73t169 55t59 190v1346z" glyph-name="J" horiz-adv-x="829" unicode="J"/>
<glyph d="M240 -27v1715h151v-791l780 791h205l-837 -857l917 -858h-217l-848 789v-789h-151z" glyph-name="K" horiz-adv-x="1449" unicode="K"/>
<glyph d="M393 119h848v-146h-1001v1715h153v-1569z" glyph-name="L" horiz-adv-x="1275" unicode="L"/>
<glyph d="M391 -27h-151v1715h211l624 -1506l625 1506h211v-1715h-152v1465l-614 -1465h-139l-615 1465v-1465z" glyph-name="M" horiz-adv-x="2150" unicode="M"/>
<glyph d="M393 -27h-153v1715h200l934 -1506v1506h154v-1715h-201l-934 1506v-1506z" glyph-name="N" horiz-adv-x="1767" unicode="N"/>
<glyph d="M254 831q0 -170 57 -307q112 -268 381 -377q130 -51 272 -51t271 51q263 104 382 378q58 136 58 306q0 171 -58 307q-115 271 -382 378q-129 51 -271 51t-272 -51q-266 -105 -381 -377q-57 -138 -57 -308zM96 831q0 189 67 351t183 280t276 183q159 65 343 65t343 -66 q322 -133 458 -461q67 -161 67 -351t-67 -352q-136 -328 -458 -462q-159 -66 -343 -66t-343 66q-324 133 -459 462q-67 161 -67 351z" glyph-name="O" horiz-adv-x="1929" unicode="O"/>
<glyph d="M764 834q467 0 467 366q0 245 -248 317q-90 26 -219 25h-373v-708h373zM391 688v-715h-151v1715h551q296 0 447 -138t151 -352t-152 -362t-446 -148h-400z" glyph-name="P" horiz-adv-x="1423" unicode="P"/>
<glyph d="M254 831q0 -170 57 -307q112 -268 381 -377q129 -51 273 -51q203 0 344 86l-205 213l113 99l217 -226q100 78 171 224t71 328q-1 342 -215 549q-97 95 -226 147t-271 51q-142 0 -272 -51q-266 -105 -381 -377q-57 -138 -57 -308zM965 -47q-184 -1 -343 65 q-324 133 -459 462q-67 161 -67 351q0 189 67 351t183 280t276 183q159 65 343 65t343 -66q322 -133 458 -461q67 -161 67 -365t-86 -381t-209 -277l299 -312l-104 -106l-318 330q-196 -119 -450 -119z" glyph-name="Q" horiz-adv-x="1929" unicode="Q"/>
<glyph d="M1229 1212q0 334 -467 330h-371v-678h371q238 0 352 83q115 83 115 265zM391 719v-746h-151v1715h551q304 0 451 -133t144 -345q0 -272 -217 -400q-84 -50 -178 -67l490 -770h-178l-478 746h-434z" glyph-name="R" horiz-adv-x="1533" unicode="R"/>
<glyph d="M1188 1417q-237 150 -493 150t-343 -146q-29 -49 -28 -114q0 -129 83 -206t250 -130l136 -41q216 -66 331 -163q158 -131 158 -329q0 -236 -158 -360t-454 -125q-296 0 -564 164l80 131q247 -152 476 -152t347 85t117 245q0 202 -230 303q-75 33 -167 62l-123 36 q-442 134 -440 467q0 205 159 312q159 106 369 104q304 0 572 -164z" glyph-name="S" horiz-adv-x="1419" unicode="S"/>
<glyph d="M643 1542h-608v146h1368v-146h-608v-1569h-152v1569z" glyph-name="T" horiz-adv-x="1437" unicode="T"/>
<glyph d="M921 -47q-371 0 -549 206q-153 175 -153 482v1047h150v-1024q0 -285 131 -426q131 -142 421 -142q291 0 421 140t131 428v1024h149v-1047q0 -481 -368 -633q-134 -56 -333 -55z" glyph-name="U" horiz-adv-x="1841" unicode="U"/>
<glyph d="M43 1688h164l573 -1475l574 1475h164l-668 -1715h-139z" glyph-name="V" unicode="V"/>
<glyph d="M1530 299l414 1389h163l-518 -1715h-127l-391 1444l-391 -1444h-127l-518 1715h164l413 -1389l375 1389h168z" glyph-name="W" horiz-adv-x="2142" unicode="W"/>
<glyph d="M864 866l662 -893h-187l-567 766l-559 -766h-184l651 891l-608 824h186l514 -699l510 699h184z" glyph-name="X" horiz-adv-x="1554" unicode="X"/>
<glyph d="M811 -27h-152v697l-624 1018h174l526 -852l527 852h174l-625 -1018v-697z" glyph-name="Y" horiz-adv-x="1470" unicode="Y"/>
<glyph d="M178 1688h1161v-132l-1065 -1437h1090v-146h-1288v129l1067 1440h-965v146z" glyph-name="Z" horiz-adv-x="1460" unicode="Z"/>
<glyph d="M199 1688h387v-142h-242v-1882h242v-141h-387v2165z" glyph-name="bracketleft" horiz-adv-x="600" unicode="["/>
<glyph d="M1028 -334l-1134 2022h151l1141 -2022h-158z" glyph-name="backslash" horiz-adv-x="1079" unicode="\"/>
<glyph d="M401 -477h-387v141h242v1882h-242v142h387v-2165z" glyph-name="bracketright" horiz-adv-x="600" unicode="]"/>
<glyph d="M1124 733h-163l-412 762l-412 -762h-162l510 955h129z" glyph-name="asciicircum" horiz-adv-x="1099" unicode="^"/>
<glyph d="M66 27h1077v-142h-1077v142z" glyph-name="underscore" horiz-adv-x="1208" unicode="_"/>
<glyph d="M-45 1688h213l305 -349h-160z" glyph-name="grave" horiz-adv-x="434" unicode="`"/>
<glyph d="M260 315q0 -219 344 -219q175 0 305 49v379q-111 23 -220 23q-209 0 -309 -45q-120 -54 -120 -187zM104 311q0 203 158 291t418 88q91 0 229 -18v12q0 166 -78 237t-239 70q-76 0 -157 -20q-81 -21 -124 -39t-121 -62l7 164q200 101 416 101q216 1 329 -103t113 -330 v-665q-203 -84 -441 -84q-346 0 -466 188q-44 70 -44 170z" glyph-name="a" horiz-adv-x="1232" unicode="a"/>
<glyph d="M199 1688h145v-576q133 23 262 23q129 1 253 -47q244 -94 328 -320q40 -110 40 -230q0 -260 -162 -414q-177 -171 -500 -171q-170 0 -366 57v1678zM1071 539q0 325 -275 420q-92 32 -216 32t-236 -28v-838q148 -29 231 -29q254 0 375 118t121 325z" glyph-name="b" horiz-adv-x="1292" unicode="b"/>
<glyph d="M639 1135q125 0 219 -26t195 -81l-68 -133q-88 53 -165 75t-175 22t-175 -36q-77 -35 -132 -94q-117 -126 -117 -318q0 -193 117 -321q118 -127 301 -127q104 0 181 22t165 75l68 -134q-101 -55 -195 -81t-217 -26q-241 1 -408 169t-167 420t165 423q166 171 408 171z " glyph-name="c" horiz-adv-x="1089" unicode="c"/>
<glyph d="M727 -47q-170 0 -294 46q-246 91 -328 311q-40 108 -39 229q0 260 168 427t487 169q94 0 227 -23v576h146v-1678q-197 -57 -367 -57zM221 541q0 -209 121 -327t375 -118q97 0 231 29v838q-110 28 -235 28q-242 0 -367 -120q-125 -121 -125 -330z" glyph-name="d" horiz-adv-x="1292" unicode="d"/>
<glyph d="M639 991q-86 -1 -159 -29t-124 -78t-84 -119t-41 -118h799q-6 57 -38 126t-82 118t-118 75t-153 25zM658 -47q-258 0 -425 168t-167 422t168 423t411 169q244 0 395 -164q152 -164 156 -465h-975q2 -68 33 -149t87 -138q121 -123 320 -123t390 113l69 -133 q-106 -61 -214 -92t-248 -31z" glyph-name="e" horiz-adv-x="1257" unicode="e"/>
<glyph d="M35 1112h241v176q0 215 112 307t304 93h215v-142h-229q-147 0 -201 -60q-55 -60 -55 -235v-139h471v-141h-471v-998h-146v998h-241v141z" glyph-name="f" horiz-adv-x="880" unicode="f"/>
<glyph d="M594 -346q354 0 354 307v14q-483 -84 -721 154q-161 161 -161 420t169 423q169 163 486 163q171 0 373 -58v-1134q0 -225 -133 -329t-355 -103q-222 0 -397 86l-27 180q230 -123 412 -123zM221 549q0 -326 275 -421q92 -32 217 -32t235 29v838q-143 28 -231 28 q-254 0 -375 -118t-121 -324z" glyph-name="g" horiz-adv-x="1292" unicode="g"/>
<glyph d="M1147 655v-682h-146v621q0 233 -83 315q-82 82 -244 82t-330 -33v-985h-145v1715h145v-582q324 52 517 8q286 -66 286 -459z" glyph-name="h" horiz-adv-x="1325" unicode="h"/>
<glyph d="M272 1585q45 0 78 -33q33 -34 33 -78t-33 -77t-78 -33q-46 0 -78 33t-32 78t32 77t78 33zM199 1112h145v-1139h-145v1139z" glyph-name="i" horiz-adv-x="542" unicode="i"/>
<glyph d="M274 1585q45 0 78 -33q33 -34 33 -78t-33 -77t-78 -33q-46 0 -78 33t-32 78t32 77t78 33zM48 -354q52 0 84 14q57 25 71 138q6 58 6 143v1171h145v-1171q0 -210 -58 -311q-72 -122 -243 -122q-47 0 -112 13l-31 147q86 -22 138 -22z" glyph-name="j" horiz-adv-x="550" unicode="j"/>
<glyph d="M199 -27v1715h145v-1084l543 508h209l-611 -563l662 -576h-219l-584 508v-508h-145z" glyph-name="k" horiz-adv-x="1095" unicode="k"/>
<glyph d="M199 -27v1715h145v-1715h-145z" glyph-name="l" horiz-adv-x="542" unicode="l"/>
<glyph d="M1343 1135q228 0 331 -98q124 -116 124 -382v-682h-145v625q0 235 -73 314t-251 79q-118 0 -242 -46q-43 -15 -55 -21q45 -106 45 -269v-682h-145v625q0 235 -76 314t-254 79q-109 0 -258 -35v-983h-145v1102l233 43q90 16 180 17q234 0 326 -88q80 37 192 63t213 25z " glyph-name="m" horiz-adv-x="1976" unicode="m"/>
<glyph d="M1147 655v-682h-146v621q0 233 -83 315q-82 82 -244 82t-330 -33v-985h-145v1108q438 85 662 33q286 -66 286 -459z" glyph-name="n" horiz-adv-x="1325" unicode="n"/>
<glyph d="M1065 543q0 92 -31 174t-86 142t-133 96t-172 36t-172 -36t-133 -96q-117 -128 -117 -314q0 -187 119 -318t303 -131q94 0 172 36q156 72 219 238q31 81 31 173zM66 541q0 244 166 418t409 175q242 1 411 -173q169 -175 169 -419t-166 -416q-166 -173 -411 -173 q-244 0 -411 172t-167 416z" glyph-name="o" horiz-adv-x="1286" unicode="o"/>
<glyph d="M1227 548q0 -259 -169 -427t-487 -168q-94 0 -227 22v-452h-145v1554q192 56 364 57q323 2 494 -162q170 -165 170 -424zM1071 546q0 210 -121 328t-375 117q-85 0 -231 -28v-838q114 -29 236 -29q243 0 367 120t124 330z" glyph-name="p" horiz-adv-x="1292" unicode="p"/>
<glyph d="M724 1135q168 0 370 -58v-1554h-146v452q-483 -84 -721 154q-163 163 -162 422q1 258 170 421t489 163zM221 549q0 -326 275 -421q92 -32 217 -32t235 29v838q-143 28 -231 28q-254 1 -375 -117t-121 -325z" glyph-name="q" horiz-adv-x="1292" unicode="q"/>
<glyph d="M563 1112h209v-141h-188q-64 1 -138 -11t-102 -22v-965h-145v1082q213 57 364 57z" glyph-name="r" horiz-adv-x="786" unicode="r"/>
<glyph d="M557 1135q242 0 442 -109l-65 -133q-100 55 -182 77t-204 22t-190 -43q-68 -41 -68 -115t58 -113q57 -39 207 -70l76 -16q216 -50 308 -130q91 -80 91 -232t-132 -236t-356 -84t-436 115l70 139q184 -111 396 -111t278 92q24 35 24 102q0 68 -61 114t-205 77l-86 19 q-215 52 -300 126t-86 207t119 217q120 85 302 85z" glyph-name="s" horiz-adv-x="1169" unicode="s"/>
<glyph d="M692 -27q-416 0 -416 385v613h-241v141h241v412h146v-412h471v-141h-471v-555q0 -175 55 -238t201 -63h229v-142h-215z" glyph-name="t" horiz-adv-x="1003" unicode="t"/>
<glyph d="M950 1112h146v-1085q-260 -74 -477 -74t-319 96q-122 112 -122 383v680h146v-618q0 -238 78 -322q38 -41 98 -58q60 -18 184 -18q123 0 266 43v973z" glyph-name="u" horiz-adv-x="1294" unicode="u"/>
<glyph d="M504 -27l-484 1139h166l385 -924l385 924h166l-483 -1139h-135z" glyph-name="v" horiz-adv-x="1142" unicode="v"/>
<glyph d="M1212 -27l-327 914l-328 -914h-135l-377 1139h164l283 -909l321 909h143l322 -909l283 909h163l-376 -1139h-136z" glyph-name="w" horiz-adv-x="1769" unicode="w"/>
<glyph d="M668 557l458 -584h-176l-372 473l-373 -473h-178l460 586l-434 553h176l349 -442l348 442h178z" glyph-name="x" horiz-adv-x="1153" unicode="x"/>
<glyph d="M663 -47q-131 0 -217 20q-268 63 -268 459v680h146v-618q0 -238 73 -317t241 -80t312 42v973h146v-1169q0 -225 -133 -329t-355 -103q-222 0 -397 86l-27 180q138 -74 204 -90q137 -33 208 -33q354 0 354 307v29q-155 -37 -287 -37z" glyph-name="y" horiz-adv-x="1294" unicode="y"/>
<glyph d="M143 1112h893v-125l-733 -872h744v-142h-941v125l732 873h-695v141z" glyph-name="z" horiz-adv-x="1173" unicode="z"/>
<glyph d="M537 -477q-178 0 -239 67q-60 67 -60 240v455q0 184 -67 227q-28 18 -95 25v139q68 6 96 24q63 41 66 228v452q0 172 59 238q35 39 93 54t147 16h71v-142h-49q-123 0 -150 -31q-26 -31 -26 -149v-440q0 -237 -99 -306q-10 -7 -22 -14q12 -6 34 -22t44 -57q42 -79 43 -240 v-443q0 -120 27 -150t149 -30h49v-141h-71z" glyph-name="braceleft" horiz-adv-x="643" unicode="{"/>
<glyph d="M199 1688h145v-2165h-145v2165z" glyph-name="bar" horiz-adv-x="542" unicode="|"/>
<glyph d="M260 287q0 254 119 319q-86 47 -109 179q-10 58 -10 141v440q0 120 -27 150t-149 30h-49v142h71q177 0 240 -70q35 -39 47 -97t13 -141v-452q0 -182 65 -228q27 -18 96 -24v-139q-71 -7 -97 -25q-64 -45 -64 -227v-455q0 -169 -61 -238t-239 -69h-71v141h49q123 0 150 31 q26 31 26 149v443z" glyph-name="braceright" horiz-adv-x="643" unicode="}"/>
<glyph d="M928 498q62 0 106 37t60 141h145q-23 -176 -107 -247t-210 -71q-78 0 -149 29t-139 63t-132 60t-128 27q-64 0 -108 -37q-43 -37 -59 -142h-146q23 174 106 246t210 72q84 0 160 -29q77 -29 143 -63t126 -60t122 -26z" glyph-name="asciitilde" horiz-adv-x="1300" unicode="~"/>
<glyph d="M344 -475h-145v1272h145v-1272zM270 1247q45 0 78 -33q33 -34 33 -78t-33 -77t-78 -33q-46 0 -78 33t-32 78t32 77t78 33z" glyph-name="exclamdown" horiz-adv-x="540" unicode="¡"/>
<glyph d="M325 850q-104 -128 -104 -307t104 -307q49 -60 119 -96t125 -42v889q-55 -6 -126 -42t-118 -95zM715 -231h-146v188q-86 6 -183 52t-168 124q-154 169 -153 409t153 409q71 79 168 126t183 53v189h146v-189q161 -4 338 -102l-68 -133q-153 90 -270 92v-889q117 4 270 95 l68 -134q-177 -98 -338 -102v-188z" glyph-name="cent" horiz-adv-x="1089" unicode="¢"/>
<glyph d="M150 72q372 191 372 508q0 105 -67 227h-293v127h217l-29 45q-100 162 -100 292t53 212q147 227 549 227q276 0 537 -158l-68 -129q-241 144 -507 144q-267 0 -374 -142q-39 -53 -39 -121t15 -116q15 -49 82 -176l49 -78h530v-127h-461q58 -111 58 -206q0 -246 -180 -426 q51 7 123 7t176 -30t165 -42q61 -14 157 -14t241 56l53 -134q-162 -65 -292 -65q-131 -1 -245 29q-113 30 -176 44t-129 13q-173 0 -362 -84z" glyph-name="sterling" horiz-adv-x="1476" unicode="£"/>
<glyph d="M912 343q116 116 120 274t-109 269t-288 115q-174 -4 -288 -116t-110 -270q5 -157 121 -273t276 -115q162 0 278 116zM635 1153q175 0 334 -111l88 88l110 -110l-84 -86q101 -155 101 -321t-101 -318l84 -86l-110 -111l-88 88q-160 -112 -335 -111q-176 1 -333 111 l-88 -88l-111 111l84 86q-100 153 -100 318t100 321l-84 86l111 110l88 -88q159 111 334 111z" glyph-name="currency" horiz-adv-x="1269" unicode="¤"/>
<glyph d="M109 741h426l-562 947h174l506 -852l506 852h174l-563 -947h426v-141h-467v-207h467v-141h-467v-279h-151v279h-469v141h469v207h-469v141z" glyph-name="yen" horiz-adv-x="1306" unicode="¥"/>
<glyph d="M199 395h145v-872h-145v872zM199 1688h145v-873h-145v873z" glyph-name="brokenbar" horiz-adv-x="542" unicode="¦"/>
<glyph d="M1133 532q0 96 -68 168t-213 150l-336 176q-14 6 -26 14t-15 9q-103 -35 -184 -110q-82 -75 -81 -171q1 -95 65 -163t204 -136l365 -193l47 -28q100 47 171 117q71 71 71 167zM209 1390q0 87 39 146q116 174 428 174q199 0 395 -106l-67 -134q-88 53 -165 75t-197 22 t-200 -45t-80 -119t52 -130t174 -122l346 -184q256 -131 327 -286q27 -60 27 -135q-1 -204 -195 -339q-56 -39 -79 -49q43 -35 85 -106t42 -163q0 -91 -39 -161q-120 -216 -458 -214q-208 1 -400 107l67 133q162 -96 328 -96q248 1 319 123q25 41 25 88t-11 82 q-23 73 -126 146q-55 40 -141 87l-287 154q-180 95 -258 179q-105 111 -105 246q0 197 206 332q58 38 77 44q-41 29 -85 97t-44 154z" glyph-name="section" horiz-adv-x="1343" unicode="§"/>
<glyph d="M657 1585q45 0 78 -33q33 -34 33 -78t-33 -77t-78 -33t-77 33t-33 78q1 45 33 77t77 33zM104 1585q45 0 78 -33q33 -34 33 -78t-33 -77t-78 -33q-46 0 -78 33t-32 78t32 77t78 33z" glyph-name="dieresis" horiz-adv-x="761" unicode="¨"/>
<glyph d="M654 1195q138 142 339 142q105 1 185 -21t168 -71l-64 -125q-78 46 -141 64t-143 18q-148 0 -243 -102t-94 -258q1 -157 96 -257t236 -100q83 1 147 19t142 67l64 -129q-88 -49 -167 -69q-79 -21 -183 -21t-189 37q-86 37 -152 103q-139 139 -139 350t138 353zM258 826 q0 -328 208 -534q97 -98 231 -152t289 -54q314 0 520 207t206 535t-206 533q-206 206 -521 208q-154 0 -288 -55q-271 -110 -383 -386q-56 -138 -56 -302zM106 825q0 197 69 360q138 327 467 464q159 65 343 65t343 -66t279 -183q121 -119 189 -281t68 -359t-69 -359 q-138 -324 -467 -457q-159 -65 -343 -65t-343 66q-331 134 -467 456q-69 162 -69 359z" glyph-name="copyright" horiz-adv-x="1970" unicode="©"/>
<glyph d="M662 1423q0 158 -203 158q-84 0 -138 -15t-149 -50l14 143q121 53 269 53q245 0 323 -159q29 -58 29 -138v-459q-188 -69 -344 -69q-248 0 -335 136q-32 50 -32 124q0 135 102 201t259 65q93 0 205 -24v34zM479 1284q-235 0 -235 -135t223 -135q90 0 195 30v213 q-89 27 -183 27z" glyph-name="ordfeminine" horiz-adv-x="954" unicode="ª"/>
<glyph d="M479 563l383 549h164l-373 -547l371 -551h-160zM49 563l383 549h168l-377 -547l377 -551h-166z" glyph-name="guillemotleft" horiz-adv-x="1056" unicode="«"/>
<glyph d="M1059 764h-993v141h1138v-682h-145v541z" glyph-name="logicalnot" horiz-adv-x="1402" unicode="¬"/>
<glyph d="M1237 1042q0 116 -138 141q-44 7 -100 7h-213v-297h226q125 -1 175 37t50 112zM1016 754h-230v-385h-143v962h334q192 0 285 -52q127 -71 127 -235q-1 -94 -53 -164t-122 -92l211 -419h-163l-193 387q-32 -2 -53 -2zM258 826q0 -328 208 -534q97 -98 231 -152t289 -54 q314 0 520 207t206 535t-206 533q-206 206 -521 208q-154 0 -288 -55q-271 -110 -383 -386q-56 -138 -56 -302zM106 825q0 197 69 360q138 327 467 464q159 65 343 65t343 -66t279 -183q121 -119 189 -281t68 -359t-69 -359q-138 -324 -467 -457q-159 -65 -343 -65t-343 66 q-331 134 -467 456q-69 162 -69 359z" glyph-name="registered" horiz-adv-x="1970" unicode="®"/>
<glyph d="M-6 1432v135h661v-135h-661z" glyph-name="macron" horiz-adv-x="649" unicode="¯"/>
<glyph d="M215 1354q0 -98 55 -160q56 -62 148 -61q92 0 148 61q56 62 56 160t-56 159t-148 61t-148 -60q-56 -62 -55 -160zM66 1351q0 147 101 253t250 106q151 0 253 -104t102 -254t-102 -252t-249 -103q-146 -1 -250 103q-105 104 -105 251z" glyph-name="degree" horiz-adv-x="837" unicode="°"/>
<glyph d="M66 115h1128v-142h-1128v142zM557 563h-491v142h491v407h145v-407h492v-142h-492v-420h-145v420z" glyph-name="plusminus" horiz-adv-x="1259" unicode="±"/>
<glyph d="M340 1567q-55 -1 -92 -15t-96 -61l-54 76q68 51 121 69t133 18t150 -49q70 -50 70 -160q0 -109 -106 -223q-105 -114 -230 -204h356v-88h-516v78q205 154 303 253t98 191q0 59 -41 87t-96 28z" glyph-name="uni00B2" horiz-adv-x="667" unicode="²"/>
<glyph d="M293 1341q172 0 172 115q0 45 -41 75q-40 30 -100 30q-60 -1 -97 -15t-96 -61l-53 76q68 51 121 69t135 18t153 -48q72 -50 72 -134t-40 -124t-46 -42q16 -2 59 -42t43 -112q0 -121 -76 -176t-166 -55q-90 1 -145 19t-122 70l53 75q57 -47 97 -61t102 -14t113 32 q50 32 50 96q0 124 -184 121h-37v88h33z" glyph-name="uni00B3" horiz-adv-x="651" unicode="³"/>
<glyph d="M121 1339h-160l305 349h213z" glyph-name="acute" horiz-adv-x="434" unicode="´"/>
<glyph d="M217 -88v1200h145v-524q0 -347 194 -457q62 -35 148 -35t149 35q196 111 196 457v524h145v-1139h-145v170q1 -3 -17 -31t-66 -70q-104 -91 -262 -90t-261 89q-48 41 -68 75t-15 13v-197q0 -230 -22 -391h-143q22 141 22 371z" glyph-name="mu" horiz-adv-x="1392" unicode="µ"/>
<glyph d="M569 1688h430v-1885h-145v1747h-244v-1747h-145v1004q-63 2 -145 33t-146 85q-139 119 -139 320q0 200 146 323q147 120 388 120z" glyph-name="paragraph" horiz-adv-x="1198" unicode="¶"/>
<glyph d="M248 440q-45 0 -78 33t-33 78t33 78t78 33t78 -33q32 -33 32 -78t-32 -78t-78 -33z" glyph-name="periodcentered" horiz-adv-x="495" unicode="·"/>
<glyph d="M157 -350q40 0 73 6t48 25q15 21 15 47t-27 42q-26 16 -70 17q-44 0 -102 -29l-57 62l127 207h131l-78 -133q51 10 19 10q84 0 139 -46t55 -116q0 -115 -82 -168q-67 -45 -160 -45q-94 0 -200 37l39 119q90 -35 130 -35z" glyph-name="cedilla" horiz-adv-x="423" unicode="¸"/>
<glyph d="M326 922h-90v612l-160 -49v88l250 78v-729z" glyph-name="uni00B9" horiz-adv-x="401" unicode="¹"/>
<glyph d="M483 1016q126 0 201 76q74 76 75 201q1 124 -75 204t-198 80q-122 1 -200 -79t-79 -202q0 -190 160 -259q50 -21 116 -21zM483 883q-90 -1 -167 31q-158 65 -224 219q-33 77 -33 163t33 162t90 131t134 88t167 33q176 0 300 -120t124 -294t-123 -294q-122 -119 -301 -119 z" glyph-name="ordmasculine" horiz-adv-x="935" unicode="º"/>
<glyph d="M193 14h-160l370 551l-372 547h164l383 -549zM623 14h-166l377 551l-377 547h168l383 -549z" glyph-name="guillemotright" horiz-adv-x="1056" unicode="»"/>
<glyph d="M377 -8l942 1626l113 -64l-943 -1626zM334 1448h-170l55 123h238v-971h-123v848zM1468 141h-530v43l602 801h51v-721h135v-123h-135v-168h-123v168zM1468 264v422l-317 -422h317z" glyph-name="onequarter" horiz-adv-x="1904" unicode="¼"/>
<glyph d="M287 -8l942 1626l112 -64l-942 -1626zM334 1448h-170l55 123h238v-971h-123v848zM1399 842q-205 0 -205 -203h-125q4 80 17 128q14 48 58 95t114 75t139 28q135 0 233 -85q98 -87 96 -212q0 -97 -58 -180t-130 -154l-233 -238h417v-123h-708l418 424l59 64 q110 117 112 203q1 86 -57 132t-147 46z" glyph-name="onehalf" horiz-adv-x="1904" unicode="½"/>
<glyph d="M567 -8l942 1626l113 -64l-942 -1626zM1632 141h-530v43l602 801h51v-721h135v-123h-135v-168h-123v168zM791 1327q1 -81 -45 -145t-58 -68q16 -6 66 -76t51 -142q0 -136 -93 -223q-94 -85 -224 -85q-131 0 -217 72q-42 36 -67 85q-26 49 -26 136h119q12 -92 57 -131 q46 -39 108 -39q156 0 205 103q15 32 15 69q0 166 -223 166v122q106 0 157 42q52 43 52 111t-48 106t-122 38t-115 -34t-47 -125h-123q28 284 289 282q116 0 203 -75q86 -74 86 -189zM1632 264v422l-318 -422h318z" glyph-name="threequarters" horiz-adv-x="2068" unicode="¾"/>
<glyph d="M96 14q0 114 44 206q86 181 284 261q94 39 170 47v385h151v-520h-38q-177 0 -316 -107t-139 -288q0 -146 112 -246t279 -98q104 0 187 27t194 90l-6 -164q-106 -55 -188 -75t-196 -22q-112 0 -213 39t-174 105t-112 156t-39 204zM676 1268q51 0 86 -35t35 -86t-35 -86 t-86 -35t-86 35t-35 86t35 86t86 35z" glyph-name="questiondown" horiz-adv-x="1128" unicode="¿"/>
<glyph d="M362 2052h213l306 -348h-160zM463 664h635l-318 786zM1538 -27h-164l-217 541h-754l-217 -541h-163l688 1715h139z" glyph-name="Agrave" unicode="À"/>
<glyph d="M844 1704h-160l305 348h213zM463 664h635l-318 786zM1538 -27h-164l-217 541h-754l-217 -541h-163l688 1715h139z" glyph-name="Aacute" unicode="Á"/>
<glyph d="M1210 1704h-174l-254 207l-260 -207h-174l379 348h109zM463 664h635l-318 786zM1538 -27h-164l-217 541h-754l-217 -541h-163l688 1715h139z" glyph-name="Acircumflex" unicode="Â"/>
<glyph d="M608 2013q58 1 106 -23t91 -48l78 -48q28 -16 67 -16t64 28t39 107h135q-43 -270 -238 -270q-57 -1 -104 23t-88 50t-76 45t-76 19q-42 0 -64 -29t-36 -108h-137q43 270 239 270zM463 664h635l-318 786zM1538 -27h-164l-217 541h-754l-217 -541h-163l688 1715h139z" glyph-name="Atilde" unicode="Ã"/>
<glyph d="M1057 1980q45 0 78 -32t33 -78q0 -45 -34 -78q-32 -33 -77 -33t-78 33t-33 78q0 46 33 78t78 32zM504 1980q45 0 78 -32q32 -32 32 -78q0 -45 -32 -78t-78 -33q-45 0 -78 33t-33 78q0 46 33 78t78 32zM463 664h635l-318 786zM1538 -27h-164l-217 541h-754l-217 -541h-163 l688 1715h139z" glyph-name="Adieresis" unicode="Ä"/>
<glyph d="M782 2021q-42 -1 -72 -27t-30 -73t31 -74t71 -27t71 28q30 26 30 73t-30 73t-71 27zM1010 1920q0 -98 -67 -156q-67 -60 -162 -60t-161 59t-67 157q1 98 67 158t161 60t162 -60t67 -158zM463 664h635l-318 786zM1538 -27h-164l-217 541h-754l-217 -541h-163l688 1715h139 z" glyph-name="Aring" unicode="Å"/>
<glyph d="M1042 664v747l-479 -747h479zM2042 1688v-146h-848v-602h768v-149h-768v-672h858v-146h-1010v541h-575l-346 -541h-170l1104 1715h987z" glyph-name="AE" horiz-adv-x="2168" unicode="Æ"/>
<glyph d="M877 -279q0 66 -98 66q-44 0 -101 -29l-57 62l98 162q-117 26 -240 104t-208 190q-175 232 -175 555q0 181 60 343q124 330 445 467q161 69 341 69t318 -36q139 -36 270 -115l-68 -129q-229 137 -514 137t-489 -199q-205 -199 -205 -538q0 -338 206 -536t488 -198 q283 0 514 137l68 -129q-247 -151 -567 -151q-59 0 -123 8l-39 -67q51 10 18 10q84 0 139 -46q56 -46 56 -116q1 -114 -82 -168q-130 -88 -361 -8l39 119q89 -35 146 -35q117 0 121 71z" glyph-name="Ccedilla" horiz-adv-x="1607" unicode="Ç"/>
<glyph d="M342 2052h213l305 -348h-160zM240 1688h999v-146h-848v-602h768v-149h-768v-672h858v-146h-1009v1715z" glyph-name="Egrave" horiz-adv-x="1366" unicode="È"/>
<glyph d="M780 1704h-159l305 348h213zM240 1688h999v-146h-848v-602h768v-149h-768v-672h858v-146h-1009v1715z" glyph-name="Eacute" horiz-adv-x="1366" unicode="É"/>
<glyph d="M1169 1704h-174l-254 207l-260 -207h-174l379 348h109zM240 1688h999v-146h-848v-602h768v-149h-768v-672h858v-146h-1009v1715z" glyph-name="Ecircumflex" horiz-adv-x="1366" unicode="Ê"/>
<glyph d="M1020 1980q45 0 78 -32q32 -32 32 -78q0 -45 -32 -78t-78 -33q-45 0 -78 33t-33 78q0 46 33 78t78 32zM467 1980q45 0 78 -32t33 -78q0 -45 -33 -78t-78 -33t-78 33t-33 78q0 46 33 78t78 32zM240 1688h999v-146h-848v-602h768v-149h-768v-672h858v-146h-1009v1715z" glyph-name="Edieresis" horiz-adv-x="1366" unicode="Ë"/>
<glyph d="M-98 2052h213l305 -348h-160zM240 -27v1715h151v-1715h-151z" glyph-name="Igrave" horiz-adv-x="630" unicode="Ì"/>
<glyph d="M373 1704h-160l305 348h213zM240 -27v1715h151v-1715h-151z" glyph-name="Iacute" horiz-adv-x="630" unicode="Í"/>
<glyph d="M748 1704h-175l-254 207l-260 -207h-174l379 348h109zM240 -27v1715h151v-1715h-151z" glyph-name="Icircumflex" horiz-adv-x="630" unicode="Î"/>
<glyph d="M590 1980q45 0 78 -32q32 -32 32 -78q0 -45 -32 -78t-78 -33q-45 0 -78 33t-33 78q0 46 33 78t78 32zM37 1980q45 0 78 -32t33 -78q0 -45 -34 -78q-32 -33 -77 -33t-78 33t-33 78q0 46 33 78t78 32zM240 -27v1715h151v-1715h-151z" glyph-name="Idieresis" horiz-adv-x="630" unicode="Ï"/>
<glyph d="M606 119q389 0 598 192t209 518q0 325 -223 519t-584 194h-233v-602h284v-141h-284v-680h233zM221 799h-186v141h186v748h387q428 0 696 -226q267 -226 267 -633t-276 -636q-260 -218 -687 -220h-387v826z" glyph-name="Eth" horiz-adv-x="1667" unicode="Ð"/>
<glyph d="M1065 1878q39 0 63 28t39 107h136q-43 -270 -238 -270q-57 -1 -104 23t-89 50t-76 45t-75 19t-64 -29t-36 -108h-138q43 270 240 270q59 1 106 -23t91 -48l77 -48q29 -16 68 -16zM393 -27h-153v1715h200l934 -1506v1506h154v-1715h-201l-934 1506v-1506z" glyph-name="Ntilde" horiz-adv-x="1767" unicode="Ñ"/>
<glyph d="M1833 832q0 -190 -67 -352q-136 -328 -458 -462q-159 -66 -343 -66t-343 66q-324 133 -459 462q-67 161 -67 351q0 189 67 351q136 329 459 463q131 54 279 63l-354 344h213l304 -347q129 -13 244 -60q322 -135 458 -463q66 -160 67 -350zM254 831q0 -170 57 -307 q112 -268 381 -377q130 -51 272 -51t271 51q263 104 382 378q58 136 58 306q0 171 -58 307q-115 271 -382 378q-129 51 -271 51t-272 -51q-266 -105 -381 -377q-57 -138 -57 -308z" glyph-name="Ograve" horiz-adv-x="1929" unicode="Ò"/>
<glyph d="M254 831q0 -170 57 -307q112 -268 381 -377q130 -51 272 -51t271 51q263 104 382 378q58 136 58 306q0 171 -58 307q-115 271 -382 378q-129 51 -271 51t-272 -51q-266 -105 -381 -377q-57 -138 -57 -308zM96 831q0 189 67 351q136 329 459 463q109 45 230 59l305 348 h213l-353 -343q155 -8 303 -69t264 -179q116 -119 182 -279t67 -350q0 -190 -67 -352q-136 -328 -458 -462q-159 -66 -343 -66t-343 66q-324 133 -459 462q-67 161 -67 351z" glyph-name="Oacute" horiz-adv-x="1929" unicode="Ó"/>
<glyph d="M1395 1704h-174l-254 207l-260 -207h-175l379 348h109zM254 831q0 -170 57 -307q112 -268 381 -377q130 -51 272 -51t271 51q263 104 382 378q58 136 58 306q0 171 -58 307q-115 271 -382 378q-129 51 -271 51t-272 -51q-266 -105 -381 -377q-57 -138 -57 -308zM96 831 q0 189 67 351t183 280t276 183q159 65 343 65t343 -66q322 -133 458 -461q67 -161 67 -351t-67 -352q-136 -328 -458 -462q-159 -66 -343 -66t-343 66q-324 133 -459 462q-67 161 -67 351z" glyph-name="Ocircumflex" horiz-adv-x="1929" unicode="Ô"/>
<glyph d="M1132 1878q39 0 64 28t39 107h135q-43 -270 -237 -270q-57 -1 -105 23t-88 50q-41 26 -76 45q-36 19 -76 19t-63 -29t-37 -108h-137q43 270 240 270q59 1 106 -23t88 -48l76 -48q32 -16 71 -16zM254 831q0 -170 57 -307q112 -268 381 -377q130 -51 272 -51t271 51 q263 104 382 378q58 136 58 306q0 171 -58 307q-115 271 -382 378q-129 51 -271 51t-272 -51q-266 -105 -381 -377q-57 -138 -57 -308zM96 831q0 189 67 351t183 280t276 183q159 65 343 65t343 -66q322 -133 458 -461q67 -161 67 -351t-67 -352q-136 -328 -458 -462 q-159 -66 -343 -66t-343 66q-324 133 -459 462q-67 161 -67 351z" glyph-name="Otilde" horiz-adv-x="1929" unicode="Õ"/>
<glyph d="M1243 1980q45 0 78 -32t33 -78q0 -45 -33 -78t-78 -33t-78 33t-32 78q0 45 32 78q33 32 78 32zM690 1980q45 0 78 -32t33 -78q0 -45 -33 -78t-78 -33t-78 33t-32 78q0 45 32 78q33 32 78 32zM254 831q0 -170 57 -307q112 -268 381 -377q130 -51 272 -51t271 51 q263 104 382 378q58 136 58 306q0 171 -58 307q-115 271 -382 378q-129 51 -271 51t-272 -51q-266 -105 -381 -377q-57 -138 -57 -308zM96 831q0 189 67 351t183 280t276 183q159 65 343 65t343 -66q322 -133 458 -461q67 -161 67 -351t-67 -352q-136 -328 -458 -462 q-159 -66 -343 -66t-343 66q-324 133 -459 462q-67 161 -67 351z" glyph-name="Odieresis" horiz-adv-x="1929" unicode="Ö"/>
<glyph d="M0 102l451 451l-451 453l100 100l451 -453l453 453l100 -100l-453 -453l453 -451l-100 -100l-453 451l-451 -451z" glyph-name="multiply" horiz-adv-x="1103" unicode="×"/>
<glyph d="M254 835q0 -165 50 -293t120 -202l971 1087q-72 57 -188 99q-117 42 -251 41q-134 0 -264 -51q-266 -106 -380 -378q-58 -138 -58 -303zM1675 827q0 166 -52 297t-124 205l-971 -1089q74 -60 190 -102t252 -42t265 51q263 104 382 378q58 136 58 302zM96 831 q0 189 67 351t183 280t276 183q159 65 330 65t310 -49t231 -123l223 248l107 -96l-221 -248q100 -100 166 -259t65 -351q0 -192 -67 -352q-136 -328 -458 -462q-159 -66 -332 -66t-313 50q-140 49 -237 127l-209 -235l-106 96l211 237q-96 98 -161 256t-65 348z" glyph-name="Oslash" horiz-adv-x="1929" unicode="Ø"/>
<glyph d="M528 2052h213l306 -348h-160zM921 -47q-371 0 -549 206q-153 175 -153 482v1047h150v-1024q0 -285 131 -426q131 -142 421 -142q291 0 421 140t131 428v1024h149v-1047q0 -481 -368 -633q-134 -56 -333 -55z" glyph-name="Ugrave" horiz-adv-x="1841" unicode="Ù"/>
<glyph d="M961 1704h-160l305 348h213zM921 -47q-371 0 -549 206q-153 175 -153 482v1047h150v-1024q0 -285 131 -426q131 -142 421 -142q291 0 421 140t131 428v1024h149v-1047q0 -481 -368 -633q-134 -56 -333 -55z" glyph-name="Uacute" horiz-adv-x="1841" unicode="Ú"/>
<glyph d="M1360 1704h-174l-254 207l-260 -207h-174l379 348h108zM921 -47q-371 0 -549 206q-153 175 -153 482v1047h150v-1024q0 -285 131 -426q131 -142 421 -142q291 0 421 140t131 428v1024h149v-1047q0 -481 -368 -633q-134 -56 -333 -55z" glyph-name="Ucircumflex" horiz-adv-x="1841" unicode="Û"/>
<glyph d="M1192 1980q45 0 78 -32t33 -78q0 -45 -33 -78t-78 -33t-78 33t-33 78q0 46 33 78t78 32zM639 1980q45 0 78 -32t33 -78q0 -45 -33 -78t-78 -33t-78 33t-33 78q0 46 33 78t78 32zM921 -47q-371 0 -549 206q-153 175 -153 482v1047h150v-1024q0 -285 131 -426 q131 -142 421 -142q291 0 421 140t131 428v1024h149v-1047q0 -481 -368 -633q-134 -56 -333 -55z" glyph-name="Udieresis" horiz-adv-x="1841" unicode="Ü"/>
<glyph d="M768 1704h-160l305 348h213zM811 -27h-152v697l-624 1018h174l526 -852l527 852h174l-625 -1018v-697z" glyph-name="Yacute" horiz-adv-x="1470" unicode="Ý"/>
<glyph d="M1231 852q0 342 -467 342h-373v-709h373q467 0 467 367zM391 340v-367h-151v1715h151v-349h400q295 0 446 -137q152 -137 152 -353q0 -215 -144 -353q-160 -156 -454 -156h-400z" glyph-name="Thorn" horiz-adv-x="1443" unicode="Þ"/>
<glyph d="M793 96q460 0 460 367q0 191 -133 287t-340 96h-39v141h39q170 0 259 83t89 216t-97 207t-265 74q-232 0 -328 -114t-96 -351v-1129h-143v1153q0 584 567 584q228 0 372 -112t144 -287t-84 -274t-125 -111q27 -4 82 -29t117 -84q138 -132 137 -346q0 -271 -192 -402 q-168 -114 -437 -112q-131 0 -260 27l25 143q158 -27 248 -27z" glyph-name="germandbls" horiz-adv-x="1474" unicode="ß"/>
<glyph d="M274 1688h213l306 -349h-160zM260 315q0 -219 344 -219q175 0 305 49v379q-111 23 -220 23q-209 0 -309 -45q-120 -54 -120 -187zM104 311q0 203 158 291t418 88q91 0 229 -18v12q0 166 -78 237t-239 70q-76 0 -157 -20q-81 -21 -124 -39t-121 -62l7 164q200 101 416 101 q216 1 329 -103t113 -330v-665q-203 -84 -441 -84q-346 0 -466 188q-44 70 -44 170z" glyph-name="agrave" horiz-adv-x="1232" unicode="à"/>
<glyph d="M598 1339h-160l305 349h213zM260 315q0 -219 344 -219q175 0 305 49v379q-111 23 -220 23q-209 0 -309 -45q-120 -54 -120 -187zM104 311q0 203 158 291t418 88q91 0 229 -18v12q0 166 -78 237t-239 70q-76 0 -157 -20q-81 -21 -124 -39t-121 -62l7 164q200 101 416 101 q216 1 329 -103t113 -330v-665q-203 -84 -441 -84q-346 0 -466 188q-44 70 -44 170z" glyph-name="aacute" horiz-adv-x="1232" unicode="á"/>
<glyph d="M1061 1339h-174l-254 207l-260 -207h-174l379 349h108zM260 315q0 -219 344 -219q175 0 305 49v379q-111 23 -220 23q-209 0 -309 -45q-120 -54 -120 -187zM104 311q0 203 158 291t418 88q91 0 229 -18v12q0 166 -78 237t-239 70q-76 0 -157 -20q-81 -21 -124 -39 t-121 -62l7 164q200 101 416 101q216 1 329 -103t113 -330v-665q-203 -84 -441 -84q-346 0 -466 188q-44 70 -44 170z" glyph-name="acircumflex" horiz-adv-x="1232" unicode="â"/>
<glyph d="M446 1642q58 0 106 -24t89 -47l76 -47q32 -17 71 -17t64 28t39 107h135q-23 -143 -83 -206t-155 -64q-57 0 -104 24t-88 50t-76 44q-36 19 -76 19q-40 -1 -63 -29t-37 -108h-137q43 270 239 270zM260 315q0 -219 344 -219q175 0 305 49v379q-111 23 -220 23 q-209 0 -309 -45q-120 -54 -120 -187zM104 311q0 203 158 291t418 88q91 0 229 -18v12q0 166 -78 237t-239 70q-76 0 -157 -20q-81 -21 -124 -39t-121 -62l7 164q200 101 416 101q216 1 329 -103t113 -330v-665q-203 -84 -441 -84q-346 0 -466 188q-44 70 -44 170z" glyph-name="atilde" horiz-adv-x="1232" unicode="ã"/>
<glyph d="M907 1585q45 0 78 -33q33 -34 33 -78t-33 -77t-78 -33t-78 33t-32 78t33 77t77 33zM354 1585q45 0 78 -33q33 -34 33 -78t-33 -77t-78 -33t-78 33t-32 78q0 45 32 77t78 33zM260 315q0 -219 344 -219q175 0 305 49v379q-111 23 -220 23q-209 0 -309 -45 q-120 -54 -120 -187zM104 311q0 203 158 291t418 88q91 0 229 -18v12q0 166 -78 237t-239 70q-76 0 -157 -20q-81 -21 -124 -39t-121 -62l7 164q200 101 416 101q216 1 329 -103t113 -330v-665q-203 -84 -441 -84q-346 0 -466 188q-44 70 -44 170z" glyph-name="adieresis" horiz-adv-x="1232" unicode="ä"/>
<glyph d="M629 1620q-41 0 -72 -27t-31 -73t31 -74q31 -27 72 -27t71 27t29 74q1 48 -29 74t-71 26zM399 1518q0 98 67 158t162 61q95 -1 162 -61q66 -60 66 -157t-66 -157q-67 -59 -162 -59t-162 59q-67 58 -67 156zM260 315q0 -219 344 -219q175 0 305 49v379q-111 23 -220 23 q-209 0 -309 -45q-120 -54 -120 -187zM104 311q0 203 158 291t418 88q91 0 229 -18v12q0 166 -78 237t-239 70q-76 0 -157 -20q-81 -21 -124 -39t-121 -62l7 164q200 101 416 101q216 1 329 -103t113 -330v-665q-203 -84 -441 -84q-346 0 -466 188q-44 70 -44 170z" glyph-name="aring" horiz-adv-x="1232" unicode="å"/>
<glyph d="M1818 773q-101 218 -354 218q-173 0 -282 -107q-51 -50 -84 -119t-41 -118h798q-6 57 -37 126zM260 315q0 -219 344 -219q175 0 305 49v379q-111 23 -220 23q-209 0 -309 -45q-120 -54 -120 -187zM680 690q91 0 229 -18v12q0 166 -78 237t-239 70q-76 0 -157 -20 q-81 -21 -124 -39t-121 -62l7 164q200 101 397 101q196 0 302 -72t120 -154q35 68 161 147t270 79q145 0 245 -42q206 -86 286 -312q41 -112 43 -275h-974q3 -68 33 -149t86 -138q121 -123 302 -123q128 0 222 29t186 84l70 -133q-106 -61 -214 -92t-267 -31t-281 74 t-140 106v-96q-203 -84 -430 -84q-346 0 -466 188q-44 70 -44 170q0 203 158 291t418 88z" glyph-name="ae" horiz-adv-x="2082" unicode="æ"/>
<glyph d="M468 -350q136 0 136 71q0 66 -92 66q-49 0 -106 -29l-58 62l101 164q-55 14 -133 65t-134 126q-118 161 -116 368q0 250 165 421t408 171q125 0 219 -26t195 -81l-68 -133q-88 53 -165 75t-175 22t-175 -36q-77 -35 -132 -94q-117 -126 -117 -318q0 -193 117 -321 q118 -127 301 -127q104 0 181 22t165 75l68 -134q-195 -109 -383 -107q-94 0 -105 7l-39 -65q53 10 21 10q84 0 139 -46t55 -116q0 -115 -82 -168q-130 -88 -360 -8l39 119q90 -35 130 -35z" glyph-name="ccedilla" horiz-adv-x="1089" unicode="ç"/>
<glyph d="M254 1688h213l305 -349h-160zM639 991q-86 -1 -159 -29t-124 -78t-84 -119t-41 -118h799q-6 57 -38 126t-82 118t-118 75t-153 25zM658 -47q-258 0 -425 168t-167 422t168 423t411 169q244 0 395 -164q152 -164 156 -465h-975q2 -68 33 -149t87 -138q121 -123 320 -123 t390 113l69 -133q-106 -61 -214 -92t-248 -31z" glyph-name="egrave" horiz-adv-x="1257" unicode="è"/>
<glyph d="M618 1339h-159l305 349h213zM639 991q-86 -1 -159 -29t-124 -78t-84 -119t-41 -118h799q-6 57 -38 126t-82 118t-118 75t-153 25zM658 -47q-258 0 -425 168t-167 422t168 423t411 169q244 0 395 -164q152 -164 156 -465h-975q2 -68 33 -149t87 -138q121 -123 320 -123 t390 113l69 -133q-106 -61 -214 -92t-248 -31z" glyph-name="eacute" horiz-adv-x="1257" unicode="é"/>
<glyph d="M1083 1339h-174l-254 207l-260 -207h-174l379 349h109zM639 991q-86 -1 -159 -29t-124 -78t-84 -119t-41 -118h799q-6 57 -38 126t-82 118t-118 75t-153 25zM658 -47q-258 0 -425 168t-167 422t168 423t411 169q244 0 395 -164q152 -164 156 -465h-975q2 -68 33 -149 t87 -138q121 -123 320 -123t390 113l69 -133q-106 -61 -214 -92t-248 -31z" glyph-name="ecircumflex" horiz-adv-x="1257" unicode="ê"/>
<glyph d="M920 1585q46 0 78 -33q32 -34 32 -78t-33 -77t-77 -33t-78 33q-33 33 -33 78t33 77t78 33zM367 1585q45 0 77 -33q32 -34 33 -78q0 -44 -33 -77q-34 -33 -78 -33t-77 33t-33 78t33 77t78 33zM639 991q-86 -1 -159 -29t-124 -78t-84 -119t-41 -118h799q-6 57 -38 126 t-82 118t-118 75t-153 25zM658 -47q-258 0 -425 168t-167 422t168 423t411 169q244 0 395 -164q152 -164 156 -465h-975q2 -68 33 -149t87 -138q121 -123 320 -123t390 113l69 -133q-106 -61 -214 -92t-248 -31z" glyph-name="edieresis" horiz-adv-x="1257" unicode="ë"/>
<glyph d="M-152 1688h213l306 -349h-160zM199 -27v1139h145v-1139h-145z" glyph-name="igrave" horiz-adv-x="542" unicode="ì"/>
<glyph d="M338 1339h-160l305 349h213zM199 -27v1139h145v-1139h-145z" glyph-name="iacute" horiz-adv-x="542" unicode="í"/>
<glyph d="M702 1339h-174l-254 207l-260 -207h-174l379 349h109zM199 -27v1139h145v-1139h-145z" glyph-name="icircumflex" horiz-adv-x="542" unicode="î"/>
<glyph d="M549 1585q45 0 78 -33q33 -34 33 -78t-34 -77q-32 -33 -77 -33t-78 33t-33 78t33 77t78 33zM-4 1585q45 0 78 -33q32 -34 32 -78t-32 -77t-78 -33q-45 0 -78 33t-33 78t33 77t78 33zM199 -27v1139h145v-1139h-145z" glyph-name="idieresis" horiz-adv-x="542" unicode="ï"/>
<glyph d="M1176 578q0 94 -37 181q-75 176 -254 254q-87 38 -187 38q-201 0 -340 -141q-137 -141 -137 -332q0 -198 140 -340t338 -142t338 143q139 142 139 339zM696 -47q-133 0 -250 51q-116 51 -200 138t-132 199q-48 113 -48 237t49 237q100 230 329 330q112 49 236 49t205 -39 l-170 234l-176 -138l-86 111l180 143l-129 183h176l68 -95l194 152l88 -111l-201 -157l314 -437q112 -163 150 -254t38 -218q0 -126 -50 -240t-136 -196q-86 -83 -201 -131t-248 -48z" glyph-name="eth" horiz-adv-x="1396" unicode="ð"/>
<glyph d="M496 1642q59 0 106 -24t90 -47l78 -45q30 -19 68 -19t63 28t39 107h135q-43 -268 -237 -270q-56 0 -104 24t-89 50t-76 44q-35 19 -75 19q-40 -1 -64 -29q-23 -28 -37 -108h-137q43 270 240 270zM1147 655v-682h-146v621q0 233 -83 315q-82 82 -244 82t-330 -33v-985 h-145v1108q438 85 662 33q286 -66 286 -459z" glyph-name="ntilde" horiz-adv-x="1325" unicode="ñ"/>
<glyph d="M283 1688h213l305 -349h-160zM1065 543q0 92 -31 174t-86 142t-133 96t-172 36t-172 -36t-133 -96q-117 -128 -117 -314q0 -187 119 -318t303 -131q94 0 172 36q156 72 219 238q31 81 31 173zM66 541q0 244 166 418t409 175q242 1 411 -173q169 -175 169 -419t-166 -416 q-166 -173 -411 -173q-244 0 -411 172t-167 416z" glyph-name="ograve" horiz-adv-x="1286" unicode="ò"/>
<glyph d="M664 1339h-160l305 349h213zM1065 543q0 92 -31 174t-86 142t-133 96t-172 36t-172 -36t-133 -96q-117 -128 -117 -314q0 -187 119 -318t303 -131q94 0 172 36q156 72 219 238q31 81 31 173zM66 541q0 244 166 418t409 175q242 1 411 -173q169 -175 169 -419t-166 -416 q-166 -173 -411 -173q-244 0 -411 172t-167 416z" glyph-name="oacute" horiz-adv-x="1286" unicode="ó"/>
<glyph d="M1079 1339h-174l-254 207l-260 -207h-174l379 349h109zM1065 543q0 92 -31 174t-86 142t-133 96t-172 36t-172 -36t-133 -96q-117 -128 -117 -314q0 -187 119 -318t303 -131q94 0 172 36q156 72 219 238q31 81 31 173zM66 541q0 244 166 418t409 175q242 1 411 -173 q169 -175 169 -419t-166 -416q-166 -173 -411 -173q-244 0 -411 172t-167 416z" glyph-name="ocircumflex" horiz-adv-x="1286" unicode="ô"/>
<glyph d="M808 1507q38 0 62 28t39 107h135q-22 -143 -82 -206t-155 -64q-57 0 -105 24t-88 50q-42 26 -76 44q-34 19 -75 19q-41 -1 -64 -29t-37 -108h-137q43 270 240 270q59 0 106 -24t91 -47l77 -45q31 -19 69 -19zM1065 543q0 92 -31 174t-86 142t-133 96t-172 36t-172 -36 t-133 -96q-117 -128 -117 -314q0 -187 119 -318t303 -131q94 0 172 36q156 72 219 238q31 81 31 173zM66 541q0 244 166 418t409 175q242 1 411 -173q169 -175 169 -419t-166 -416q-166 -173 -411 -173q-244 0 -411 172t-167 416z" glyph-name="otilde" horiz-adv-x="1286" unicode="õ"/>
<glyph d="M922 1585q46 0 78 -33q32 -34 32 -78t-33 -77t-77 -33t-78 33q-33 33 -33 78t33 77t78 33zM369 1585q45 0 77 -33q32 -34 33 -78q0 -44 -33 -77q-34 -33 -78 -33t-77 33t-33 78t33 77t78 33zM1065 543q0 92 -31 174t-86 142t-133 96t-172 36t-172 -36t-133 -96 q-117 -128 -117 -314q0 -187 119 -318t303 -131q94 0 172 36q156 72 219 238q31 81 31 173zM66 541q0 244 166 418t409 175q242 1 411 -173q169 -175 169 -419t-166 -416q-166 -173 -411 -173q-244 0 -411 172t-167 416z" glyph-name="odieresis" horiz-adv-x="1286" unicode="ö"/>
<glyph d="M606 913q-45 0 -78 33t-32 78q0 45 32 78q33 33 78 33t78 -33t33 -78t-33 -78t-78 -33zM606 -47q-45 0 -78 33q-32 34 -32 78t32 77q33 33 78 33t78 -33t33 -78t-33 -77t-78 -33zM66 618h1087v-141h-1087v141z" glyph-name="divide" horiz-adv-x="1218" unicode="÷"/>
<glyph d="M221 546q0 -89 26 -164t52 -110l582 648q-31 24 -96 48t-151 24t-163 -37q-78 -36 -133 -96t-86 -142t-31 -171zM649 96q88 0 166 36q156 72 219 238q31 81 31 171t-28 168t-60 114l-582 -649q31 -26 99 -52t155 -26zM652 -47q-114 0 -208 34q-92 34 -147 79l-145 -160 l-101 92l148 164q-53 62 -93 164t-40 221q1 239 167 412q166 174 410 176q101 0 191 -33t143 -74l174 193l100 -95l-172 -192q57 -62 99 -166t43 -226q0 -122 -44 -229q-91 -221 -305 -314q-106 -46 -220 -46z" glyph-name="oslash" horiz-adv-x="1286" unicode="ø"/>
<glyph d="M315 1688h213l306 -349h-160zM950 1112h146v-1085q-260 -74 -477 -74t-319 96q-122 112 -122 383v680h146v-618q0 -238 78 -322q38 -41 98 -58q60 -18 184 -18q123 0 266 43v973z" glyph-name="ugrave" horiz-adv-x="1294" unicode="ù"/>
<glyph d="M653 1339h-159l305 349h213zM950 1112h146v-1085q-260 -74 -477 -74t-319 96q-122 112 -122 383v680h146v-618q0 -238 78 -322q38 -41 98 -58q60 -18 184 -18q123 0 266 43v973z" glyph-name="uacute" horiz-adv-x="1294" unicode="ú"/>
<glyph d="M1071 1339h-174l-254 207l-260 -207h-174l379 349h108zM950 1112h146v-1085q-260 -74 -477 -74t-319 96q-122 112 -122 383v680h146v-618q0 -238 78 -322q38 -41 98 -58q60 -18 184 -18q123 0 266 43v973z" glyph-name="ucircumflex" horiz-adv-x="1294" unicode="û"/>
<glyph d="M920 1585q46 0 78 -33q32 -34 32 -78t-33 -77t-77 -33t-78 33q-33 33 -33 78t33 77t78 33zM367 1585q45 0 77 -33q32 -34 33 -78q0 -44 -33 -77q-34 -33 -78 -33t-77 33t-33 78t33 77t78 33zM950 1112h146v-1085q-260 -74 -477 -74t-319 96q-122 112 -122 383v680h146 v-618q0 -238 78 -322q38 -41 98 -58q60 -18 184 -18q123 0 266 43v973z" glyph-name="udieresis" horiz-adv-x="1294" unicode="ü"/>
<glyph d="M688 1339h-160l306 349h213zM663 -47q-131 0 -217 20q-268 63 -268 459v680h146v-618q0 -238 73 -317t241 -80t312 42v973h146v-1169q0 -225 -133 -329t-355 -103q-222 0 -397 86l-27 180q138 -74 204 -90q137 -33 208 -33q354 0 354 307v29q-155 -37 -287 -37z" glyph-name="yacute" horiz-adv-x="1294" unicode="ý"/>
<glyph d="M1071 546q0 210 -121 328t-375 117q-85 0 -231 -28v-838q114 -29 236 -29q243 0 367 120t124 330zM1065 964q162 -156 162 -416q0 -259 -169 -427t-487 -168q-94 0 -227 22v-452h-145v2165h145v-576q482 83 721 -148z" glyph-name="thorn" horiz-adv-x="1292" unicode="þ"/>
</font>
</defs>
</svg>
